<svg width="16" height="12" viewBox="0 0 16 12" fill="none" xmlns="http://www.w3.org/2000/svg">
<g id="revert">
<path id="Path" d="M0.832488 3.0082C0.608731 3.0082 0.409836 3.10268 0.24409 3.24854C0.0816594 3.39937 0.0120462 3.62146 0.00210141 3.83528C-0.00784334 4.04246 0.0998915 4.27782 0.24409 4.42202C0.394919 4.57119 0.618676 4.66401 0.830831 4.66401C0.837461 4.66401 0.842433 4.66401 0.849063 4.66401C1.25846 4.66898 1.6695 4.66401 2.0789 4.66401C2.91923 4.66401 3.7579 4.66401 4.59823 4.66401C5.5579 4.66401 6.51757 4.66401 7.47724 4.66401C8.2463 4.66401 9.01536 4.66401 9.78442 4.66401C10.2203 4.66401 10.6712 4.6408 11.1038 4.69716C11.0308 4.68721 10.9562 4.67727 10.8833 4.66732C11.2065 4.71207 11.5198 4.79826 11.8198 4.92423C11.7551 4.89771 11.6888 4.86953 11.6225 4.84135C11.9143 4.96732 12.1894 5.12975 12.4413 5.32367C12.385 5.28058 12.3303 5.23749 12.2739 5.19439C12.5159 5.38334 12.733 5.60213 12.9236 5.84412C12.8806 5.78776 12.8375 5.73307 12.7944 5.67671C12.9899 5.92865 13.1507 6.20213 13.2767 6.4955C13.2502 6.43086 13.222 6.36456 13.1938 6.29826C13.3198 6.59826 13.406 6.91318 13.4507 7.23472C13.4408 7.1618 13.4308 7.08721 13.4209 7.01428C13.4623 7.33749 13.4623 7.66235 13.4209 7.98555C13.4308 7.91263 13.4408 7.83804 13.4507 7.76511C13.4076 8.085 13.3231 8.3966 13.1988 8.69329C13.2253 8.62865 13.2535 8.56235 13.2817 8.49605C13.159 8.78611 12.9999 9.05959 12.8076 9.30986C12.8507 9.25351 12.8938 9.19881 12.9369 9.14246C12.7397 9.39605 12.5126 9.62312 12.259 9.82036C12.3154 9.77727 12.3701 9.73417 12.4264 9.69108C12.1761 9.88169 11.9027 10.0425 11.6126 10.1651C11.6772 10.1386 11.7435 10.1104 11.8098 10.0822C11.5132 10.2065 11.2015 10.2911 10.8817 10.3342C10.9546 10.3242 11.0292 10.3143 11.1021 10.3043C10.7971 10.3441 10.4888 10.3358 10.1822 10.3358C9.2789 10.3358 8.37724 10.3358 7.47558 10.3358C6.87061 10.3358 6.26564 10.3358 5.66067 10.3358C5.43525 10.3358 5.23636 10.4286 5.07392 10.5778C4.91149 10.7286 4.84188 10.9507 4.83194 11.1646C4.82199 11.3717 4.92973 11.6071 5.07392 11.7513C5.22475 11.9005 5.44851 11.9933 5.66067 11.9933C5.70376 11.9933 5.7452 11.9933 5.78829 11.9933C6.55238 11.9933 7.31647 11.9933 8.08055 11.9933C8.8695 11.9933 9.66011 11.9933 10.4491 11.9933C10.8767 11.9933 11.3043 11.9601 11.7203 11.8557C12.4761 11.6651 13.1822 11.2607 13.7424 10.7204C14.9358 9.56843 15.4132 7.7618 14.9076 6.17561C14.7734 5.75627 14.5844 5.34522 14.3308 4.98555C14.1833 4.7734 14.0225 4.56787 13.8435 4.38224C13.6695 4.20158 13.4756 4.04577 13.2767 3.89329C12.5573 3.34135 11.6557 3.04467 10.754 3.01152C10.3844 2.9966 10.0132 3.0082 9.64354 3.0082C8.83801 3.0082 8.03249 3.0082 7.22696 3.0082C6.25735 3.0082 5.28774 3.0082 4.31812 3.0082C3.49934 3.0082 2.68221 3.0082 1.86343 3.0082C1.52033 3.0082 1.17558 3.0082 0.832488 3.0082V3.0082Z" fill="#000"/>
<path id="Path_2" d="M4.4192 1.41215C4.57832 1.2547 4.65124 1.04586 4.66119 0.828729C4.67113 0.60663 4.5634 0.399448 4.4192 0.241989C4.27832 0.0895028 4.03633 0 3.83246 0C3.61865 0 3.39655 0.0911602 3.24572 0.241989C3.12141 0.366298 2.9971 0.490608 2.87279 0.614917C2.33412 1.15359 1.7971 1.69227 1.25843 2.23094C0.918646 2.57072 0.57721 2.91215 0.237431 3.25193C-0.0791436 3.56851 -0.0791436 4.10718 0.237431 4.42376C0.36174 4.54807 0.484392 4.67072 0.608702 4.79503C1.14903 5.33536 1.69102 5.87569 2.23135 6.41602C2.56948 6.75414 2.9076 7.09061 3.24572 7.42873C3.40483 7.58619 3.61202 7.66077 3.83246 7.67072C4.05456 7.68066 4.26174 7.57293 4.4192 7.42873C4.57169 7.28785 4.66119 7.04586 4.66119 6.84199C4.66119 6.62818 4.57003 6.40608 4.4192 6.25525C4.29489 6.13094 4.17224 6.00829 4.04793 5.88398C3.5076 5.34365 2.96561 4.80331 2.42528 4.26298C2.08715 3.92486 1.74903 3.5884 1.41091 3.25028C1.41091 3.64144 1.41091 4.03094 1.41091 4.4221C1.53522 4.29779 1.65953 4.17348 1.78384 4.04917C2.32251 3.5105 2.85953 2.97182 3.3982 2.43315C3.73798 2.09337 4.07942 1.75193 4.4192 1.41215V1.41215Z" fill="#000"/>
</g>
</svg>
