<svg width="16" height="19" viewBox="0 0 16 19" fill="none" xmlns="http://www.w3.org/2000/svg">
<path d="M12.7612 5.59529L12.4973 5.38795C12.1865 5.14381 11.7161 5.23691 11.5447 5.58864C11.4612 5.75964 11.4024 7.49074 11.4024 7.78238C11.4024 7.84128 11.3897 7.93794 11.3912 7.94815C11.3912 8.1942 11.1657 8.38942 10.906 8.34762C10.7017 8.31485 10.5621 8.12556 10.5611 7.92346C10.548 4.96284 9.6216 2.89829 7.92132 1.35647C6.8816 0.413615 5.65218 -0.419044 5.27594 0.230981C5.17987 0.396752 5.33868 0.769383 5.49872 1.24675C5.85429 2.30859 4.76933 4.00431 3.23565 5.69884C1.79415 7.29172 0 9.27433 0 12.1953C0 15.0547 2.01766 17.7282 4.72896 18.9734C4.97217 19.085 5.20735 18.7896 5.03516 18.5882C4.43978 17.8916 4.09734 16.982 4.14599 15.9931C4.24035 14.0777 5.85526 12.5036 7.81674 12.4152C10.0309 12.3152 11.8584 14.0387 11.8584 16.179C11.8584 17.0939 11.524 17.9317 10.9685 18.5839C10.7936 18.7893 11.0205 19.0886 11.2681 18.9751C13.9809 17.7304 16 15.0562 16 12.1955C16 9.71322 14.7891 7.24588 12.7612 5.59529Z" fill="black"/>
</svg>
