<svg width="30" height="18" viewBox="0 0 30 18" fill="none" xmlns="http://www.w3.org/2000/svg">
<path d="M19.9869 5.51786C19.9869 2.76219 17.6308 0.623779 14.8453 0.623779C12.0598 0.623779 9.70374 2.76219 9.70374 5.51786C9.70374 8.27332 12.0598 10.412 14.8453 10.412C17.6308 10.412 19.9869 8.27332 19.9869 5.51786Z" fill="black"/>
<path d="M22.7344 13.7384C21.5356 10.6793 18.4354 8.5415 14.8455 8.5415C11.2555 8.5415 8.15474 10.6793 6.95602 13.7384C6.56268 14.7425 6.83353 15.7176 7.43971 16.3993C8.02625 17.0587 8.91979 17.4499 9.85943 17.4499H19.8311C20.771 17.4499 21.6645 17.0587 22.2509 16.3993C22.8571 15.7175 23.1281 14.7424 22.7346 13.7384H22.7344Z" fill="black"/>
<path d="M22.0238 1.86966C23.4244 1.86966 24.6565 3.09477 24.6565 4.72923C24.6565 6.36353 23.4244 7.58859 22.0238 7.58859C21.5075 7.58859 21.0889 8.00718 21.0889 8.52342C21.0889 9.03988 21.5075 9.45826 22.0238 9.45826C24.5639 9.45826 26.5262 7.28603 26.5262 4.72923C26.5262 2.17244 24.5639 0 22.0238 0C21.5075 0 21.0889 0.418586 21.0889 0.934832C21.0889 1.45108 21.5075 1.86966 22.0238 1.86966V1.86966Z" fill="black"/>
<path d="M22.024 9.45804C24.957 9.45804 27.4316 12.0046 27.4316 15.269C27.4316 15.7852 27.8502 16.2038 28.3664 16.2038C28.8829 16.2038 29.3013 15.7852 29.3013 15.269C29.3013 11.0825 26.0966 7.58838 22.024 7.58838C21.5075 7.58838 21.0892 8.00696 21.0892 8.52321C21.0892 9.03946 21.5075 9.45804 22.024 9.45804V9.45804Z" fill="black"/>
<path d="M7.77854 1.86966C6.37795 1.86966 5.14579 3.09477 5.14579 4.72923C5.14579 6.36353 6.37795 7.58859 7.77854 7.58859C8.29479 7.58859 8.71337 8.00718 8.71337 8.52342C8.71337 9.03988 8.29479 9.45826 7.77854 9.45826C5.23842 9.45826 3.27612 7.28603 3.27612 4.72923C3.27612 2.17244 5.23842 0 7.77854 0C8.29479 0 8.71337 0.418586 8.71337 0.934832C8.71337 1.45108 8.29479 1.86966 7.77854 1.86966Z" fill="black"/>
<path d="M7.77726 9.45804C4.84424 9.45804 2.36966 12.0046 2.36966 15.269C2.36966 15.7852 1.95108 16.2038 1.43483 16.2038C0.918377 16.2038 0.5 15.7852 0.5 15.269C0.5 11.0825 3.70471 7.58838 7.77726 7.58838C8.29372 7.58838 8.7121 8.00696 8.7121 8.52321C8.7121 9.03946 8.29372 9.45804 7.77726 9.45804V9.45804Z" fill="black"/>
</svg>
