<svg width="24" height="16" viewBox="0 0 24 16" fill="none" xmlns="http://www.w3.org/2000/svg">
<path d="M18.6104 0.000141724C18.5819 0.000396526 18.5533 0.00141587 18.5248 0.00319955H15.8762L18.2223 4.72219C18.4866 5.25935 18.9743 5.70272 19.545 5.90938C19.9607 6.07501 20.413 6.06532 20.8523 6.06074C21.3321 6.05539 21.8127 6.06991 22.292 6.04927C22.8521 5.98837 23.3275 5.50396 23.3722 4.9418C23.4196 4.54047 23.2394 4.1391 22.9484 3.86721C21.8909 2.72947 20.8395 1.58606 19.7777 0.452628C19.4704 0.148887 19.039 -0.00375263 18.6104 7.00565e-05L18.6104 0.000141724ZM7.49853 0.00319955C6.56491 0.00319955 5.63227 0.00447364 4.69884 0.00447364C4.21519 0.00396397 3.75041 0.241963 3.4444 0.612469C2.3882 1.75634 1.32405 2.89362 0.272158 4.04154C-0.0858634 4.4709 -0.0912127 5.14411 0.259417 5.57961C0.513214 5.91623 0.943325 6.08823 1.35971 6.05918C1.96898 6.05358 2.57879 6.06963 3.18755 6.05052C4.0305 5.99267 4.81278 5.44889 5.17104 4.68492C5.947 3.1244 6.72262 1.56363 7.49858 0.00310996L7.49853 0.00319955ZM8.38884 0.00319955C7.60832 1.57337 6.8278 3.14335 6.04728 4.71352C5.83578 5.11817 5.97873 5.66371 6.36682 5.90657C6.60686 6.07883 6.91137 6.06456 7.1917 6.05921C8.06778 6.0564 8.94563 6.0643 9.82165 6.05487C10.474 6.01385 11.0629 5.51925 11.2143 4.88348C11.3004 4.53667 11.2487 4.17608 11.2629 3.82317V0.00316073L8.38884 0.00319955ZM12.1133 0.00319955V4.49512C12.1153 4.85874 12.2409 5.21725 12.4688 5.48993C12.7837 5.88184 13.2938 6.08875 13.7928 6.05919C14.728 6.05563 15.6637 6.06658 16.5984 6.05486C17.0542 6.01536 17.4357 5.59645 17.4275 5.13729C17.4352 4.79965 17.2148 4.5219 17.0863 4.22552C16.3868 2.81817 15.6869 1.4103 14.9874 0.00314679L12.1133 0.00319955ZM11.701 5.86502C11.2938 6.46741 10.6353 6.87183 9.87575 6.91971C9.86097 6.92073 9.84518 6.92226 9.83014 6.92252C8.94336 6.93195 8.06603 6.92405 7.19738 6.92685C6.93467 6.93297 6.41432 6.98571 5.89043 6.62565C5.62032 6.45212 5.43761 6.21361 5.2995 5.95218C4.75598 6.49775 4.04173 6.86089 3.24745 6.91542C3.23675 6.91619 3.22554 6.91644 3.21483 6.91695C2.68532 6.93351 2.17469 6.92561 1.6808 6.92536V14.4018C1.6808 15.2867 2.3925 16 3.27752 16H13.7371C13.879 16 14.0153 15.9437 14.1157 15.8433C14.2161 15.7429 14.2724 15.6068 14.2722 15.4649V9.65831C14.2722 9.24092 14.608 8.9048 15.0257 8.9048H17.5114C17.9291 8.9048 18.2662 9.2409 18.2662 9.65831V15.5304C18.2664 15.7895 18.4767 15.9997 18.7358 16H20.0986C20.9836 16 21.6953 15.2867 21.6953 14.4018V6.92732C21.4061 6.92758 21.1276 6.92452 20.8621 6.92732C20.434 6.93191 19.8609 6.96453 19.2381 6.72041C18.7914 6.55656 18.4025 6.29104 18.0751 5.96409C17.8055 6.48469 17.305 6.86412 16.6739 6.91865C16.6525 6.92069 16.6311 6.9212 16.6097 6.92146C15.6618 6.93343 14.724 6.92375 13.797 6.92732C13.043 6.95815 12.2979 6.65262 11.8007 6.03981C11.7569 5.98707 11.7396 5.92132 11.7008 5.86552L11.701 5.86502ZM5.58052 8.95161H10.5138C10.8 8.95161 11.0303 9.18196 11.0303 9.46813V11.8186C11.0303 12.1047 10.8 12.3351 10.5138 12.3351H5.58052C5.29436 12.3351 5.06272 12.1047 5.06272 11.8186V9.46813C5.06272 9.18197 5.29436 8.95161 5.58052 8.95161Z" fill="black"/>
</svg>
