<svg width="21" height="21" viewBox="0 0 21 21" fill="none" xmlns="http://www.w3.org/2000/svg">
<path fill-rule="evenodd" clip-rule="evenodd" d="M14.3146 1.80899C13.2921 0.707865 11.7978 0 10.1461 0C8.49438 0 7 0.707865 5.89888 1.80899C4.79775 2.83146 4.16854 4.32584 4.16854 5.97753C4.16854 7.62921 4.79775 9.1236 5.89888 10.2247L6.13483 10.4607L6.05618 10.5393C2.59551 11.8764 0 14.9438 0 19.7416C0 20.4494 0.550562 21 1.25843 21C1.88764 21 2.51685 20.4494 2.51685 19.7416C2.51685 16.1236 4.40449 13.8427 6.92135 12.8202C7.94382 12.427 9.04494 12.2697 10.1461 12.2697C11.2472 12.2697 12.2697 12.427 13.2921 12.8202H13.3708C15.809 13.8427 17.7753 16.1236 17.7753 19.7416C17.7753 20.4494 18.3258 21 19.0337 21C19.6629 21 20.2921 20.4494 20.2921 19.7416C20.2921 15.0225 17.618 11.8764 14.3146 10.5393H14.236L14.0787 10.4607L14.3146 10.2247C15.4157 9.1236 16.1236 7.62921 16.1236 5.97753C16.1236 4.32584 15.4157 2.83146 14.3146 1.80899ZM10.1461 2.51685C11.0899 2.51685 11.9551 2.91011 12.5843 3.53933C13.2135 4.16854 13.6067 5.03371 13.6067 5.97753C13.6067 7 13.2135 7.86517 12.5843 8.49438C11.9551 9.1236 11.0899 9.4382 10.1461 9.4382C9.1236 9.4382 8.25843 9.1236 7.62921 8.49438C7 7.86517 6.68539 7 6.68539 5.97753C6.68539 5.03371 7 4.16854 7.62921 3.53933C8.25843 2.91011 9.1236 2.51685 10.1461 2.51685Z" fill="black"/>
</svg>
