<svg width="18" height="15" viewBox="0 0 18 15" fill="none" xmlns="http://www.w3.org/2000/svg">
<g id="water-s">
<path id="Path" fill-rule="evenodd" clip-rule="evenodd" d="M13.9589 10.6773C13.8208 11.9421 12.7488 12.8976 11.4766 12.8901H5.84893C4.59927 12.8893 3.54504 11.9596 3.38794 10.7199L3.03333 8.04614H14.2461L13.9589 10.6773Z" fill="#63B6FF"/>
<path id="01" fill-rule="evenodd" clip-rule="evenodd" d="M2.77798 5.92199H14.4801L15.0827 0.0293955C15.9938 0.0231828 16.7333 0.0137124 17.208 0L16.0759 10.9078C15.8124 13.2389 13.8403 15.0004 11.4943 15H5.85245C3.53078 15.0007 1.57087 13.2747 1.27798 10.9716L0 0C0 0 0.803954 0.00504084 2.07006 0.0115165L2.77798 5.92199ZM13.9588 10.6773C13.8207 11.942 12.7488 12.8976 11.4766 12.8901H5.8489C4.59924 12.8893 3.54501 11.9596 3.38791 10.7199L3.0333 8.0461H14.2461L13.9588 10.6773Z" fill="black"/>
</g>
</svg>
