<svg width="14" height="28" viewBox="0 0 14 28" fill="none" xmlns="http://www.w3.org/2000/svg">
<g id="lsize ico">
<path id="Path" d="M1.80477 26.1799V14.7391C1.80477 13.8358 1.78003 12.1799 1.78003 12.1799H12.22C12.22 12.1799 12.1953 13.8358 12.1953 14.7391V26.1799H1.80477Z" fill="#63B6FF"/>
<path id="Shape" fill-rule="evenodd" clip-rule="evenodd" d="M11.2 7.4414C11.2 8.2814 11.62 9.1214 12.18 9.8214C13.3 10.9414 14 12.4814 14 14.1614V24.8014C14 26.3414 12.74 27.6014 11.2 27.6014H2.8C1.26 27.6014 0 26.3414 0 24.8014V14.1614C0 12.4814 0.7 10.9414 1.82 9.8214C2.38 9.2614 2.8 8.2814 2.8 7.4414V2.4014H1.4V0H12.6V2.4014H11.2V7.4414ZM2.3 14.1614V25.3234H11.7V14.1614C11.7 13.3214 11.42 12.4814 10.72 11.7814C9.6 10.6614 8.9 9.1214 8.9 7.4414V2.4014H5.1V7.4414C5.1 9.1214 4.4 10.6614 3.28 11.7814C2.72 12.3414 2.3 13.3214 2.3 14.1614Z" fill="black"/>
</g>
</svg>
