<svg width="21" height="22" viewBox="0 0 21 22" fill="none" xmlns="http://www.w3.org/2000/svg">
<g id="water-m">
<path id="Path" fill-rule="evenodd" clip-rule="evenodd" d="M15.9592 17.3246C15.8098 18.6925 14.6504 19.726 13.2744 19.7179H7.18759C5.83597 19.717 4.69573 18.7115 4.52581 17.3706L2.99164 5.65723H17.2594L15.9592 17.3246Z" fill="#63B6FF"/>
<path id="02" fill-rule="evenodd" clip-rule="evenodd" d="M2.75767 3.4749H17.4704L17.8008 0.0331846C18.7994 0.0265003 19.6169 0.0158802 20.1667 0L18.249 17.5739C17.964 20.0952 15.831 22.0004 13.2936 22H7.19142C4.68033 22.0007 2.56051 20.134 2.24372 17.643L0.000487703 0.00383493C0.587729 0.00323821 1.40148 0.00506583 2.3694 0.00821263L2.75767 3.4749ZM0.000487703 0.00383493L0 0.00383543V0L0.000487703 0.00383493ZM15.9592 17.3246C15.8098 18.6925 14.6504 19.7261 13.2744 19.7179H7.18759C5.83597 19.7171 4.69572 18.7115 4.5258 17.3706L2.99163 5.65725H17.2594L15.9592 17.3246Z" fill="black"/>
</g>
</svg>
